<svg width="20" height="20" viewBox="0 0 20 20" fill="none" xmlns="http://www.w3.org/2000/svg">
<path d="M16.0606 4.84691H13.3333V3.33333C13.3333 1.49527 11.838 0 9.99997 0C8.16197 0 6.66664 1.49533 6.66664 3.33333V4.84691H3.93936C3.4373 4.84691 3.03027 5.25394 3.03027 5.756V19.0909C3.03027 19.593 3.4373 20 3.93936 20H16.0606C16.5626 20 16.9697 19.593 16.9697 19.0909V5.756C16.9697 5.25394 16.5626 4.84691 16.0606 4.84691ZM8.48482 3.33333C8.48482 2.49788 9.16452 1.81818 9.99997 1.81818C10.8354 1.81818 11.5151 2.49788 11.5151 3.33333V4.84691H8.48482V3.33333ZM15.1515 18.1818H4.84846V6.66509H6.66664V8.18024C6.66664 8.6823 7.07367 9.08933 7.57573 9.08933C8.07779 9.08933 8.48482 8.6823 8.48482 8.18024V6.66509H11.5151V8.18024C11.5151 8.6823 11.9222 9.08933 12.4242 9.08933C12.9263 9.08933 13.3333 8.6823 13.3333 8.18024V6.66509H15.1515V18.1818Z" fill="white"/>
</svg>
